<?xml version="1.0" encoding="UTF-8" standalone="no"?>
<!-- Created with Inkscape (http://www.inkscape.org/) -->

<svg
   width="2560"
   height="1920"
   viewBox="0 0 677.33333 508.00001"
   version="1.1"
   id="svg4678"
   inkscape:version="1.2.1 (9c6d41e4, 2022-07-14)"
   sodipodi:docname="boot-thing.svg"
   inkscape:export-filename="boot-thing.png"
   inkscape:export-xdpi="101.333"
   inkscape:export-ydpi="101.333"
   xmlns:inkscape="http://www.inkscape.org/namespaces/inkscape"
   xmlns:sodipodi="http://sodipodi.sourceforge.net/DTD/sodipodi-0.dtd"
   xmlns:xlink="http://www.w3.org/1999/xlink"
   xmlns="http://www.w3.org/2000/svg"
   xmlns:svg="http://www.w3.org/2000/svg">
  <sodipodi:namedview
     id="namedview4680"
     pagecolor="#ffffff"
     bordercolor="#111111"
     borderopacity="1"
     inkscape:showpageshadow="0"
     inkscape:pageopacity="0"
     inkscape:pagecheckerboard="1"
     inkscape:deskcolor="#d1d1d1"
     inkscape:document-units="mm"
     showgrid="false"
     inkscape:zoom="0.10633226"
     inkscape:cx="1170.8582"
     inkscape:cy="742.95423"
     inkscape:window-width="1309"
     inkscape:window-height="430"
     inkscape:window-x="36"
     inkscape:window-y="23"
     inkscape:window-maximized="0"
     inkscape:current-layer="layer3" />
  <defs
     id="defs4675">
    <linearGradient
       inkscape:collect="always"
       id="linearGradient4037">
      <stop
         style="stop-color:#000000;stop-opacity:1;"
         offset="0"
         id="stop4033" />
      <stop
         style="stop-color:#000000;stop-opacity:0;"
         offset="1"
         id="stop4035" />
    </linearGradient>
    <linearGradient
       inkscape:collect="always"
       id="linearGradient3609">
      <stop
         style="stop-color:#000000;stop-opacity:1;"
         offset="0"
         id="stop3605" />
      <stop
         style="stop-color:#000000;stop-opacity:0;"
         offset="1"
         id="stop3607" />
    </linearGradient>
    <linearGradient
       inkscape:collect="always"
       id="linearGradient2598">
      <stop
         style="stop-color:#000000;stop-opacity:1;"
         offset="0"
         id="stop2594" />
      <stop
         style="stop-color:#000000;stop-opacity:0;"
         offset="1"
         id="stop2596" />
    </linearGradient>
    <linearGradient
       inkscape:collect="always"
       id="linearGradient899">
      <stop
         style="stop-color:#000000;stop-opacity:1;"
         offset="0"
         id="stop895" />
      <stop
         style="stop-color:#000000;stop-opacity:0;"
         offset="1"
         id="stop897" />
    </linearGradient>
    <linearGradient
       inkscape:collect="always"
       xlink:href="#linearGradient899"
       id="linearGradient901"
       x1="228.13372"
       y1="236.8419"
       x2="331.26985"
       y2="236.8419"
       gradientUnits="userSpaceOnUse"
       gradientTransform="translate(-159.37957,-113.70555)" />
    <linearGradient
       inkscape:collect="always"
       xlink:href="#linearGradient2598"
       id="linearGradient2602"
       x1="273.07736"
       y1="241.17896"
       x2="377.3266"
       y2="241.17896"
       gradientUnits="userSpaceOnUse"
       gradientTransform="translate(-93.133386,-112.18347)" />
    <linearGradient
       inkscape:collect="always"
       xlink:href="#linearGradient3609"
       id="linearGradient3611"
       x1="384.63216"
       y1="248.53048"
       x2="485.82523"
       y2="326.15643"
       gradientUnits="userSpaceOnUse"
       gradientTransform="translate(-93.133386,-112.18347)" />
    <linearGradient
       inkscape:collect="always"
       xlink:href="#linearGradient2598"
       id="linearGradient3822"
       gradientUnits="userSpaceOnUse"
       x1="273.07736"
       y1="241.17896"
       x2="377.3266"
       y2="241.17896"
       gradientTransform="matrix(-1,0,0,1,777.9668,-92.396387)" />
    <linearGradient
       inkscape:collect="always"
       xlink:href="#linearGradient4037"
       id="linearGradient4039"
       x1="547.64711"
       y1="272.38371"
       x2="671.35281"
       y2="272.38371"
       gradientUnits="userSpaceOnUse"
       gradientTransform="translate(-38.629184,-112.18347)" />
    <symbol
       id="symbol550">
      <path
         id="path1409"
         style="fill:#ffffff;fill-opacity:1;stroke:url(#linearGradient2602);stroke-width:7;stroke-linecap:round;stroke-linejoin:bevel;stroke-miterlimit:0;stroke-dasharray:none;paint-order:stroke fill markers;stop-color:#000000"
         d="m 199.58413,81.783765 c -5.65005,0.0904 -10.53923,-6.419254 -14.17795,0.858124 -13.79375,130.453471 48.498,98.555791 91.32466,101.979211 20.32833,1.62497 -42.61861,-103.390032 -77.14671,-102.837335 z m 1.76837,43.476095 c 48.70643,9.13246 74.58166,33.48604 50.22846,39.57433 -24.35321,6.08833 -79.1479,7.61002 -50.22846,-39.57433 z"
         sodipodi:nodetypes="scsscsc" />
      <path
         style="fill:#ffffff;fill-opacity:1;stroke:url(#linearGradient901);stroke-width:7;stroke-linecap:round;stroke-linejoin:bevel;stroke-miterlimit:0;stroke-dasharray:none;paint-order:stroke fill markers;stop-color:#000000"
         d="M 148.07988,55.244715 C 68.931929,82.641949 47.622969,195.27556 103.93964,190.70933 c 56.31687,-4.56623 47.18441,-16.74283 50.22854,-45.66231 3.04417,-28.91947 -22.83116,6.08832 -45.66232,1.52208 -22.831108,-4.56623 27.3974,-25.87532 45.66232,-25.87532 18.26493,0 16.74286,-13.69869 7.6104,-38.051831 -9.13246,-24.353102 -13.6987,-27.397234 -13.6987,-27.397234 z"
         id="path893" />
      <path
         style="fill:#ffffff;fill-opacity:1;stroke:url(#linearGradient3611);stroke-width:7;stroke-linecap:round;stroke-linejoin:bevel;stroke-miterlimit:0;stroke-dasharray:none;stroke-opacity:1;paint-order:stroke fill markers;stop-color:#000000"
         d="m 299.56201,84.16402 -4.56623,106.54532 c 0,0 77.62596,30.44154 91.32465,-7.61039 13.69869,-38.05192 -43.36494,-79.98045 -86.75842,-98.93493 z"
         id="path2828"
         sodipodi:nodetypes="ccsc" />
      <path
         id="path3820"
         style="fill:#ffffff;fill-opacity:1;stroke:url(#linearGradient3822);stroke-width:7;stroke-linecap:round;stroke-linejoin:bevel;stroke-miterlimit:0;stroke-dasharray:none;paint-order:stroke fill markers;stop-color:#000000"
         d="m 485.24875,101.57067 c 5.65005,0.0904 10.53923,-6.41926 14.17795,0.85813 13.79375,130.45357 -48.498,108.24233 -91.32466,111.66575 -20.32833,1.62497 42.61861,-113.07658 77.14671,-112.52388 z m -1.76837,43.4762 c -48.70643,9.13246 -74.58166,33.48604 -50.22846,39.57433 24.35321,6.08833 79.1479,7.61002 50.22846,-39.57433 z"
         sodipodi:nodetypes="scsscsc" />
      <path
         style="fill:#ffffff;fill-opacity:1;stroke:url(#linearGradient4039);stroke-width:5.9932;stroke-linecap:round;stroke-linejoin:bevel;stroke-miterlimit:0;stroke-dasharray:none;stroke-opacity:1;paint-order:stroke fill markers;stop-color:#000000"
         d="m 548.84797,130.03773 -5.48331,94.15113 c 0,0 26.04574,9.91064 26.04574,0 0,-9.91066 2.74167,-92.91229 2.74167,-92.91229 0,0 57.57479,18.58245 57.57479,3.71648 0,-14.86596 -5.95771,-40.593397 -8.22497,-33.44842 -4.13802,13.04054 -98.81563,4.35089 -105.5538,-8.671778 -4.06455,-7.855405 -8.22498,27.254238 5.48334,29.731908 13.70826,2.47765 27.41654,7.43297 27.41654,7.43297 z"
         id="path3824"
         sodipodi:nodetypes="ccscssssc" />
    </symbol>
    <symbol
       id="g1907">
      <path
         style="fill:#ff9955;stroke:#000000;stroke-width:4;stroke-linecap:round;stroke-linejoin:bevel;stroke-miterlimit:0;paint-order:stroke fill markers;stop-color:#000000"
         d="m 204.94784,-346.8348 c 0,0 232.53699,-67.00218 216.77177,5.25505 -15.76523,72.25726 -19.70654,136.63191 -5.25508,139.25944 14.45144,2.62754 -65.68842,36.78551 -49.92319,56.49204 15.76522,19.70652 -124.80799,153.7108794 -135.31813,120.866674 -10.51015,-32.844205 -56.49203,-151.083344 -77.51233,-172.103634 -21.02029,-21.02029 -19.70652,-6.56885 1.31377,-28.9029 21.02029,-22.33406 5.25507,-114.29783 49.92319,-120.86667 z"
         id="path626" />
      <path
         style="fill:#f9f9f9;stroke:#000000;stroke-width:4;stroke-linecap:round;stroke-linejoin:bevel;stroke-miterlimit:0;paint-order:stroke fill markers;stop-color:#000000"
         d="m 201.00654,-279.83264 c 56.49203,-1.31377 63.06087,35.47175 59.11957,48.60943 -3.94131,13.13769 -72.25725,-2.62753 -67.00218,-31.53044 5.25507,-28.9029 7.88261,-17.07899 7.88261,-17.07899 z"
         id="path790" />
      <path
         style="fill:#f9f9f9;stroke:#000000;stroke-width:4;stroke-linecap:round;stroke-linejoin:bevel;stroke-miterlimit:0;paint-order:stroke fill markers;stop-color:#000000"
         d="m 201.00654,-279.83264 c 56.49203,-1.31377 63.06087,35.47175 59.11957,48.60943 -3.94131,13.13769 -72.25725,-2.62753 -67.00218,-31.53044 5.25507,-28.9029 7.88261,-17.07899 7.88261,-17.07899 z"
         id="path846" />
      <path
         style="fill:#f9f9f9;stroke:#000000;stroke-width:4;stroke-linecap:round;stroke-linejoin:bevel;stroke-miterlimit:0;paint-order:stroke fill markers;stop-color:#000000"
         d="m 370.59413,-272.4792 c -56.49203,-1.31377 -63.06087,35.47175 -59.11957,48.60943 3.94131,13.13769 72.25725,-2.62753 67.00218,-31.53044 -5.25507,-28.9029 -7.88261,-17.07899 -7.88261,-17.07899 z"
         id="path848" />
      <path
         style="fill:#ffccaa;stroke:#000000;stroke-width:3.44772;stroke-linecap:round;stroke-linejoin:bevel;stroke-miterlimit:0;paint-order:stroke fill markers;stop-color:#000000"
         d="m 414.03381,-263.30437 c 0,0 56.57598,-11.69495 53.94455,21.44072 -2.63145,33.13568 -51.31308,82.83918 -74.99607,81.86461 -23.68296,-0.97458 -22.36725,-5.84747 -22.36725,-5.84747 0,0 14.47293,-100.38161 43.41877,-97.45786 z"
         id="path1164"
         sodipodi:nodetypes="csscc" />
      <path
         style="fill:#ffccaa;stroke:#000000;stroke-width:3.44772;stroke-linecap:round;stroke-linejoin:bevel;stroke-miterlimit:0;paint-order:stroke fill markers;stop-color:#000000"
         d="m 163.39373,-278.32689 c 0,0 -44.02866,-28.79863 -61.16779,1.8706 -17.139108,30.66925 -2.590577,91.12244 19.29583,97.89507 21.88639,6.77261 23.57106,1.96245 23.57106,1.96245 0,0 46.07092,-95.00967 18.3009,-101.72812 z"
         id="path1166"
         sodipodi:nodetypes="csscc" />
      <path
         style="fill:#ffb380;stroke:#000000;stroke-width:4;stroke-linecap:round;stroke-linejoin:bevel;stroke-miterlimit:0;paint-order:stroke fill markers;stop-color:#000000"
         d="m 281.15664,-227.4813 c 0,0 -30.67162,38.33955 -30.67162,53.67537 0,15.33581 -26.83768,30.67163 -2.55597,30.67163 24.28171,0 38.33956,-2.55597 38.33956,-2.55597"
         id="path1168" />
      <path
         style="fill:none;stroke:#000000;stroke-width:1;stroke-linecap:round;stroke-linejoin:bevel;stroke-miterlimit:0;paint-order:stroke fill markers;stop-color:#000000"
         d="m 224.92533,-259.43092 c 1.70398,0.85199 3.34309,1.84844 5.11193,2.55597 0.39553,0.15821 0.97677,-0.30122 1.27799,0 0.30122,0.30123 -0.30122,0.97676 0,1.27799 0.30122,0.30122 0.97676,-0.30123 1.27798,0 0.30123,0.30122 -0.30122,0.97676 0,1.27798 0.30123,0.30123 0.97677,-0.30122 1.27799,0 0.19917,0.19917 0.19917,4.91278 0,5.11194 -0.30122,0.30123 -0.85199,0 -1.27799,0 -1.15099,0 -5.57921,0.40536 -6.38992,0 -1.77389,-0.88694 -1.27798,-2.27394 -1.27798,-3.83395 0,-2.12998 -2.08862,-6.80765 0,-6.38993 6.91625,1.38325 6.38992,6.10962 6.38992,10.22388 0,0.52623 0.33829,3.49567 0,3.83396 -0.63899,0.63899 -3.19496,-0.639 -3.83395,0 -0.30123,0.30122 0.30122,0.97676 0,1.27798 -0.19917,0.19917 -4.91278,0.19917 -5.11194,0 -0.30123,-0.30122 0.19051,-0.89696 0,-1.27798 -0.26943,-0.53885 -1.00857,-0.73914 -1.27799,-1.27799 -0.19051,-0.38102 0.19051,-0.89696 0,-1.27798 -0.26942,-0.53885 -1.00856,-0.73914 -1.27798,-1.27799 -0.0366,-0.0733 -0.21095,-5.96804 0,-6.38992 0.26942,-0.53885 0.79602,-0.91652 1.27798,-1.27799 1.22876,-0.92156 2.29801,-2.55597 3.83396,-2.55597 16.9817,0 3.80797,1.265 8.94589,3.83396 0.38102,0.19051 0.97676,-0.30123 1.27798,0 0.30123,0.30122 -0.19051,0.89696 0,1.27798 0.26943,0.53885 1.00857,0.73914 1.27799,1.27799 0.38102,0.76204 -0.60245,1.95352 0,2.55597 0.30122,0.30122 0.97676,-0.30123 1.27798,0 0.60245,0.60245 -0.26942,1.7477 0,2.55597 0.30123,0.90367 0.97676,1.6523 1.27799,2.55597 0.25557,0.7667 0.35516,4.40162 0,5.11194 -0.26942,0.53884 -0.73914,1.00856 -1.27799,1.27798 -0.38102,0.19051 -0.87385,-0.13471 -1.27798,0 -0.90367,0.30123 -1.6523,0.97676 -2.55597,1.27799 -0.51871,0.1729 -3.35283,0.24056 -3.83396,0 -0.53884,-0.26943 -0.85199,-0.85199 -1.27798,-1.27799 -0.42599,-0.42599 -1.00856,-0.73914 -1.27798,-1.27798 -0.19051,-0.38103 0.30122,-0.97676 0,-1.27799 -2.6442,-2.6442 0.10336,4.04068 -2.55597,-1.27798 -0.19051,-0.38102 0,-0.85199 0,-1.27799 -0.426,-0.42599 -1.00857,-0.73914 -1.27799,-1.27798 -0.19051,-0.38102 0.30122,-0.97676 0,-1.27799 -0.30122,-0.30122 -0.97676,0.30123 -1.27798,0 -0.30123,-0.30122 0.19051,-0.89696 0,-1.27798 -0.26943,-0.53885 -1.00857,-0.73914 -1.27799,-1.27799 -0.53067,-1.06134 0,-3.90037 0,-5.11194 0,-1.46899 -0.53517,-7.2965 3.83396,-5.11194 2.97587,1.48794 4.22465,5.14177 6.38992,7.66791 0.39207,0.45742 1.00856,0.73914 1.27798,1.27799 0.19051,0.38102 -0.19051,0.89696 0,1.27798 0.26943,0.53885 1.00857,0.73914 1.27799,1.27799 0.13107,0.26215 0.18023,3.65372 0,3.83395 -0.60245,0.60245 -1.79393,-0.38102 -2.55597,0 -0.53885,0.26942 -0.70645,1.08748 -1.27799,1.27799 -1.12811,0.37604 -3.76936,0 -5.11193,0 -0.426,0 -0.97677,0.30122 -1.27799,0 -0.30122,-0.30123 0.19051,-0.89697 0,-1.27799 -1.02239,-2.04477 -4.08955,-3.06716 -5.11194,-5.11194 -0.38102,-0.76204 0,-1.70398 0,-2.55597 0,-0.85199 -0.60244,-1.95352 0,-2.55597 0.30123,-0.30122 0.94534,0.26612 1.27799,0 1.88173,-1.50538 2.7141,-4.87215 5.11194,-5.11194 2.84348,-0.28434 5.0413,2.70827 7.6679,3.83396 0.84624,0.36267 2.90137,0 3.83396,0"
         id="path1233" />
      <path
         style="fill:none;stroke:#000000;stroke-width:1;stroke-linecap:round;stroke-linejoin:bevel;stroke-miterlimit:0;paint-order:stroke fill markers;stop-color:#000000"
         d="m 350.13272,-255.59697 c -1.70398,0.85199 -3.34309,1.84844 -5.11193,2.55597 -0.39553,0.15821 -0.97677,-0.30122 -1.27799,0 -0.30122,0.30123 0.30122,0.97676 0,1.27799 -0.30122,0.30122 -0.97676,-0.30123 -1.27798,0 -0.30123,0.30122 0.30122,0.97676 0,1.27798 -0.30123,0.30123 -0.97677,-0.30122 -1.27799,0 -0.19917,0.19917 -0.19917,4.91278 0,5.11194 0.30122,0.30123 0.85199,0 1.27799,0 1.15099,0 5.57921,0.40536 6.38992,0 1.77389,-0.88694 1.27798,-2.27394 1.27798,-3.83395 0,-2.12998 2.08862,-6.80765 0,-6.38993 -6.91625,1.38325 -6.38992,6.10962 -6.38992,10.22388 0,0.52623 -0.33829,3.49567 0,3.83396 0.63899,0.63899 3.19496,-0.639 3.83395,0 0.30123,0.30122 -0.30122,0.97676 0,1.27798 0.19917,0.19917 4.91278,0.19917 5.11194,0 0.30123,-0.30122 -0.19051,-0.89696 0,-1.27798 0.26943,-0.53885 1.00857,-0.73914 1.27799,-1.27799 0.19051,-0.38102 -0.19051,-0.89696 0,-1.27798 0.26942,-0.53885 1.00856,-0.73914 1.27798,-1.27799 0.0366,-0.0733 0.21095,-5.96804 0,-6.38992 -0.26942,-0.53885 -0.79602,-0.91652 -1.27798,-1.27799 -1.22876,-0.92156 -2.29801,-2.55597 -3.83396,-2.55597 -16.9817,0 -3.80797,1.265 -8.94589,3.83396 -0.38102,0.19051 -0.97676,-0.30123 -1.27798,0 -0.30123,0.30122 0.19051,0.89696 0,1.27798 -0.26943,0.53885 -1.00857,0.73914 -1.27799,1.27799 -0.38102,0.76204 0.60245,1.95352 0,2.55597 -0.30122,0.30122 -0.97676,-0.30123 -1.27798,0 -0.60245,0.60245 0.26942,1.7477 0,2.55597 -0.30123,0.90367 -0.97676,1.6523 -1.27799,2.55597 -0.25557,0.7667 -0.35516,4.40162 0,5.11194 0.26942,0.53884 0.73914,1.00856 1.27799,1.27798 0.38102,0.19051 0.87385,-0.13471 1.27798,0 0.90367,0.30123 1.6523,0.97676 2.55597,1.27799 0.51871,0.1729 3.35283,0.24056 3.83396,0 0.53884,-0.26943 0.85199,-0.85199 1.27798,-1.27799 0.42599,-0.42599 1.00856,-0.73914 1.27798,-1.27798 0.19051,-0.38103 -0.30122,-0.97676 0,-1.27799 2.6442,-2.6442 -0.10336,4.04068 2.55597,-1.27798 0.19051,-0.38102 0,-0.85199 0,-1.27799 0.426,-0.42599 1.00857,-0.73914 1.27799,-1.27798 0.19051,-0.38102 -0.30122,-0.97676 0,-1.27799 0.30122,-0.30122 0.97676,0.30123 1.27798,0 0.30123,-0.30122 -0.19051,-0.89696 0,-1.27798 0.26943,-0.53885 1.00857,-0.73914 1.27799,-1.27799 0.53067,-1.06134 0,-3.90037 0,-5.11194 0,-1.46899 0.53517,-7.2965 -3.83396,-5.11194 -2.97587,1.48794 -4.22465,5.14177 -6.38992,7.66791 -0.39207,0.45742 -1.00856,0.73914 -1.27798,1.27799 -0.19051,0.38102 0.19051,0.89696 0,1.27798 -0.26943,0.53885 -1.00857,0.73914 -1.27799,1.27799 -0.13107,0.26215 -0.18023,3.65372 0,3.83395 0.60245,0.60245 1.79393,-0.38102 2.55597,0 0.53885,0.26942 0.70645,1.08748 1.27799,1.27799 1.12811,0.37604 3.76936,0 5.11193,0 0.426,0 0.97677,0.30122 1.27799,0 0.30122,-0.30123 -0.19051,-0.89697 0,-1.27799 1.02239,-2.04477 4.08955,-3.06716 5.11194,-5.11194 0.38102,-0.76204 0,-1.70398 0,-2.55597 0,-0.85199 0.60244,-1.95352 0,-2.55597 -0.30123,-0.30122 -0.94534,0.26612 -1.27799,0 -1.88173,-1.50538 -2.7141,-4.87215 -5.11194,-5.11194 -2.84348,-0.28434 -5.0413,2.70827 -7.6679,3.83396 -0.84624,0.36267 -2.90137,0 -3.83396,0"
         id="path1298" />
      <path
         style="fill:#803300;stroke:#000000;stroke-width:1.34636;stroke-linecap:round;stroke-linejoin:bevel;stroke-miterlimit:0;paint-order:stroke fill markers;stop-color:#000000"
         d="m 158.23507,-140.42354 c 0,0 295.8188,-15.25234 288.83093,21.6075 -6.98783,36.859858 -41.92707,38.130889 -32.60995,22.878532 9.31713,-15.252362 -270.19668,7.626178 -263.20883,-5.084122 6.98785,-12.71029 -27.95138,2.54206 -39.59779,16.523388 -11.64642,13.981324 -41.927069,-13.981328 -6.98786,-31.775738 34.93923,-17.79441 53.5735,-24.14956 53.5735,-24.14956 z"
         id="path1419" />
      <path
         style="fill:#f9f9f9;stroke:#000000;stroke-width:1;stroke-linecap:round;stroke-linejoin:bevel;stroke-miterlimit:0;paint-order:stroke fill markers;stop-color:#000000"
         d="m 214.70145,-79.235058 86.90296,2.55597 c 0,0 1.27799,25.559697 -14.05784,26.837679 -15.33581,1.277985 -37.06155,24.281713 -72.84512,-29.393649 z"
         id="path1423" />
      <path
         style="fill:#f9f9f9;stroke:#000000;stroke-width:1;stroke-linecap:round;stroke-linejoin:bevel;stroke-miterlimit:0;paint-order:stroke fill markers;stop-color:#000000"
         d="m 219.81339,-75.401103 c 0,0 37.06156,15.335816 53.67537,15.335816 16.61379,0 17.89178,0 21.72573,-6.389923"
         id="path1587" />
      <path
         id="path1865"
         style="fill:#803300;fill-opacity:1;stroke:#000000;stroke-width:1.01409;stroke-linecap:round;stroke-linejoin:bevel;stroke-miterlimit:0;paint-order:stroke fill markers;stop-color:#000000"
         d="m 318.77434,-436.40127 c -14.71408,-7.57259 -10.78022,8.2765 -10.78022,8.2765 0,0 13.74581,37.36566 22.84305,51.78288 -1.9581,-0.0161 -3.877,-0.0222 -5.72627,-0.0114 -2.37546,-10.88629 -8.92632,-17.80709 -31.52417,-18.37613 -1.58248,-0.0399 -3.14951,-0.0622 -4.69997,-0.0682 -48.06393,-0.18697 -80.46641,15.37064 -80.46641,15.37064 l 25.31939,1.27537 c -0.012,0 10.27444,5.88529 21.37079,15.2337 -23.32789,3.15145 -56.56747,9.14689 -66.57113,17.86403 -23.5079,20.48467 -14.54139,5.74617 -22.34489,29.39097 -7.6192,23.08634 11.82944,-1.27781 7.88634,20.44578 -3.94312,21.72357 24.97298,-11.50082 31.54484,5.11131 6.57187,16.61216 27.60191,-14.05611 24.97315,-2.5554 -2.62872,11.50075 7.88673,8.94506 36.80293,20.44578 13.193,5.2472 15.16001,3.83188 14.78049,-1.187 0.74683,-0.0844 1.36184,-0.15565 2.17713,-0.24598 1.61098,-0.17849 2.95546,-0.24251 4.06176,-0.20619 -4.22192,6.2138 -7.49939,11.56536 -8.09252,15.26883 -12.00203,9.093 -24.48265,16.10103 0.0925,2.48977 0.59245,1.95027 2.6374,3.0484 6.69571,3.0484 11.58498,0 20.36813,-12.00182 27.46758,-20.23649 4.76203,-2.24979 9.06831,-4.31278 12.82919,-6.30195 0.59915,0.55274 1.18685,1.29786 1.76371,2.2593 9.20063,15.33429 3.94288,-16.61248 21.02973,-3.83388 17.08684,12.77856 17.08682,5.11132 39.43118,5.11132 22.34433,0 18.40127,29.39074 22.34437,0 3.94312,-29.39075 3.94327,-10.22274 13.14391,-44.72492 9.20059,-34.50217 30.23057,-43.44737 0,-48.55879 -12.03145,-2.0343 -34.88648,-4.26503 -58.04297,-5.65599 5.81062,-4.11021 9.92187,-7.12824 9.92187,-7.12824 -2.0967,-6.29009 -40.00038,-44.90162 -58.23107,-54.28403 z"
         sodipodi:nodetypes="scccsccccsssssscscccscccsssssccs" />
    </symbol>
  </defs>
  <g
     inkscape:label="Layer 1"
     inkscape:groupmode="layer"
     id="layer1" />
  <g
     inkscape:groupmode="layer"
     id="layer3"
     inkscape:label="Godot Test">
    <path
       style="fill:#ffffff;fill-opacity:1;stroke:#000000;stroke-width:7;stroke-linecap:round;stroke-linejoin:bevel;stroke-miterlimit:0;stroke-dasharray:none;stroke-opacity:1;paint-order:stroke fill markers;stop-color:#000000"
       d="m 309.6766,133.15015 c 0,0 66.81129,5.64315 65.72307,21.60601 -1.08822,15.96289 -68.19872,33.0418 -72.34717,18.31838 0,0 -9.16155,-46.80581 6.6241,-39.92439 z"
       id="path5544"
       sodipodi:nodetypes="cscc" />
    <use
       xlink:href="#symbol550"
       id="use557" />
    <use
       xlink:href="#g1907"
       id="use1924"
       transform="matrix(0.34653984,0,0,0.34653984,238.10587,376.39928)" />
    <path
       style="fill:#ff0000;fill-opacity:1;stroke:none;stroke-width:1;stroke-linecap:round;stroke-linejoin:bevel;stroke-miterlimit:0;paint-order:stroke fill markers;stop-color:#000000"
       d="M 129.39002,363.28736 114.4604,507.60701 161.73753,487.70084 164.2258,368.26391 Z"
       id="path1964" />
    <path
       style="fill:#ff0000;fill-opacity:1;stroke:none;stroke-width:1;stroke-linecap:round;stroke-linejoin:bevel;stroke-miterlimit:0;paint-order:stroke fill markers;stop-color:#000000"
       d="m 47.277123,358.31084 129.390027,9.95307 c 0,0 29.85923,37.32405 17.41788,-32.34751 -12.44135,-69.67154 -149.296176,9.95309 -149.296176,9.95309 z"
       id="path2074" />
    <path
       style="fill:#ff0000;fill-opacity:1;stroke:none;stroke-width:1;stroke-linecap:round;stroke-linejoin:bevel;stroke-miterlimit:0;paint-order:stroke fill markers;stop-color:#000000"
       d="m 288.63929,370.75218 c 0,0 -82.1129,32.34751 -72.15982,77.13636 9.95307,44.78885 84.60117,64.69502 87.08942,39.8123 2.48828,-24.88268 12.44137,-32.34751 -12.44134,-32.34751 -24.88269,0 -64.69501,4.97655 -57.2302,-4.97652 7.46481,-9.95309 9.95308,-9.95309 52.25367,-44.78885 42.30058,-34.83578 2.48827,-34.83578 2.48827,-34.83578 z"
       id="path2076" />
    <path
       style="fill:#ff0000;fill-opacity:1;stroke:none;stroke-width:1.05276;stroke-linecap:round;stroke-linejoin:bevel;stroke-miterlimit:0;paint-order:stroke fill markers;stop-color:#000000"
       d="m 437.93545,361.0686 c 0,0 -74.64808,-11.0311 -62.20674,11.03113 12.44137,22.06219 4.97655,66.18663 37.32406,68.94437 32.3475,2.75779 17.41789,49.64 -17.4179,44.12444"
       id="path2078" />
    <path
       style="fill:#ff0000;fill-opacity:1;stroke:none;stroke-width:1;stroke-linecap:round;stroke-linejoin:bevel;stroke-miterlimit:0;paint-order:stroke fill markers;stop-color:#000000"
       d="M 557.91681,355.82255 572.84643,500.1422 525.5693,480.23603 523.08103,360.7991 Z"
       id="path2134" />
    <path
       style="fill:#ff0000;fill-opacity:1;stroke:none;stroke-width:1;stroke-linecap:round;stroke-linejoin:bevel;stroke-miterlimit:0;paint-order:stroke fill markers;stop-color:#000000"
       d="m 640.02971,350.84603 -129.39003,9.95307 c 0,0 -29.85923,37.32405 -17.41788,-32.34751 12.44135,-69.67154 149.29618,9.95309 149.29618,9.95309 z"
       id="path2136" />
  </g>
  <g
     inkscape:groupmode="layer"
     id="layer2"
     inkscape:label="drowing2" />
</svg>
